<svg id="Capa_1" enable-background="new 0 0 512 512" height="512" viewBox="0 0 512 512" width="512" xmlns="http://www.w3.org/2000/svg"><g><path d="m174.043 115.578 61.957 140.422-61.958 140.422h-151.448c-8.336 0-15.094-6.758-15.094-15.094v-250.656c0-8.336 6.758-15.094 15.094-15.094z" fill="#9dc6fb"/><path d="m174.043 115.578h-22.815l56.148 127.254c3.701 8.388 3.701 17.947 0 26.335l-56.148 127.254h22.815l61.957-140.421z" fill="#80b4fb"/><path d="m174.043 115.578 61.957 140.422-61.958 140.422h315.364c8.336 0 15.094-6.758 15.094-15.094v-250.656c0-8.336-6.758-15.094-15.094-15.094z" fill="#365e7d"/><path d="m489.406 115.578h-23.815c8.336 0 15.094 6.758 15.094 15.094v250.656c0 8.336-6.758 15.094-15.094 15.094h23.815c8.336 0 15.094-6.758 15.094-15.094v-250.656c0-8.336-6.757-15.094-15.094-15.094z" fill="#2b4d66"/><path d="m67.487 244.061-27.962-61.593c-1.011-2.227-.535-4.847 1.194-6.576l27.962-27.962c2.292-2.292 6.008-2.292 8.3 0l27.962 27.962c1.729 1.729 2.205 4.349 1.194 6.576l-27.962 61.593c-2.084 4.591-8.604 4.591-10.688 0z" fill="#e7a561"/><path d="m104.942 175.892-27.962-27.962c-2.292-2.292-6.008-2.292-8.3 0l-10.394 10.394 21.315 21.315c1.729 1.729 2.205 4.349 1.194 6.576l-19.785 43.581 6.476 14.264c2.084 4.59 8.604 4.59 10.688 0l27.961-61.593c1.012-2.226.536-4.846-1.193-6.575z" fill="#e49542"/><path d="m489.406 115.578h-47.337l-13.687 45.097 76.118 67.201v-97.204c0-8.336-6.757-15.094-15.094-15.094z" fill="#e7a561"/><path d="m489.406 115.578h-23.815c8.336 0 15.094 6.758 15.094 15.094v76.179l23.815 21.025v-97.204c0-8.336-6.757-15.094-15.094-15.094z" fill="#e49542"/><path d="m161.851 306.417h-110.573c-3.572 0-6.467-2.896-6.467-6.467v-16.521c0-3.572 2.896-6.467 6.467-6.467h110.573c3.572 0 6.467 2.896 6.467 6.467v16.521c0 3.571-2.895 6.467-6.467 6.467z" fill="#365e7d"/><path d="m161.851 276.96h-20.895c3.572 0 6.467 2.896 6.467 6.467v16.521c0 3.572-2.896 6.467-6.467 6.467h20.895c3.572 0 6.467-2.896 6.467-6.467v-16.521c0-3.571-2.895-6.467-6.467-6.467z" fill="#2b4d66"/><g><path d="m82.284 142.628c-5.211-5.211-13.692-5.213-18.907 0l-27.96 27.96c-3.917 3.916-5.011 9.936-2.721 14.98l27.962 61.593c2.196 4.837 6.86 7.842 12.173 7.842s9.977-3.005 12.173-7.843l27.962-61.593c2.289-5.042 1.196-11.062-2.72-14.979zm-9.453 95.061-26.009-57.292 26.009-26.009 26.009 26.009z"/><path d="m175.818 299.949v-16.521c0-7.702-6.266-13.968-13.968-13.968h-110.572c-7.702 0-13.968 6.266-13.968 13.968v16.521c0 7.702 6.266 13.968 13.968 13.968h110.572c7.703 0 13.968-6.265 13.968-13.968zm-15-1.032h-108.507v-14.457h108.508v14.457z"/><path d="m127.513 332.125c0-4.143-3.357-7.5-7.5-7.5h-68.685c-4.143 0-7.5 3.357-7.5 7.5s3.357 7.5 7.5 7.5h68.685c4.142 0 7.5-3.357 7.5-7.5z"/><path d="m51.328 350.334c-4.143 0-7.5 3.357-7.5 7.5s3.357 7.5 7.5 7.5h38.685c4.143 0 7.5-3.357 7.5-7.5s-3.357-7.5-7.5-7.5z"/><path d="m272.745 155.985h-12.745c-4.143 0-7.5 3.358-7.5 7.5s3.357 7.5 7.5 7.5h12.745c4.143 0 7.5-3.358 7.5-7.5s-3.357-7.5-7.5-7.5z"/><path d="m301.188 170.985h98.644c4.143 0 7.5-3.358 7.5-7.5s-3.357-7.5-7.5-7.5h-98.644c-4.143 0-7.5 3.358-7.5 7.5s3.357 7.5 7.5 7.5z"/><path d="m272.745 192.991h-12.745c-4.143 0-7.5 3.358-7.5 7.5s3.357 7.5 7.5 7.5h12.745c4.143 0 7.5-3.358 7.5-7.5s-3.357-7.5-7.5-7.5z"/><path d="m301.188 207.991h98.644c4.143 0 7.5-3.358 7.5-7.5s-3.357-7.5-7.5-7.5h-98.644c-4.143 0-7.5 3.358-7.5 7.5s3.357 7.5 7.5 7.5z"/><path d="m272.745 229.997h-12.745c-4.143 0-7.5 3.358-7.5 7.5s3.357 7.5 7.5 7.5h12.745c4.143 0 7.5-3.358 7.5-7.5s-3.357-7.5-7.5-7.5z"/><path d="m301.188 244.997h148.644c4.143 0 7.5-3.358 7.5-7.5s-3.357-7.5-7.5-7.5h-148.644c-4.143 0-7.5 3.358-7.5 7.5s3.357 7.5 7.5 7.5z"/><path d="m301.188 282.003h148.644c4.143 0 7.5-3.357 7.5-7.5s-3.357-7.5-7.5-7.5h-148.644c-4.143 0-7.5 3.357-7.5 7.5s3.357 7.5 7.5 7.5z"/><path d="m272.745 304.009h-12.745c-4.143 0-7.5 3.357-7.5 7.5s3.357 7.5 7.5 7.5h12.745c4.143 0 7.5-3.357 7.5-7.5s-3.357-7.5-7.5-7.5z"/><path d="m369.831 304.009h-68.644c-4.143 0-7.5 3.357-7.5 7.5s3.357 7.5 7.5 7.5h68.644c4.143 0 7.5-3.357 7.5-7.5s-3.357-7.5-7.5-7.5z"/><path d="m272.745 341.015h-12.745c-4.143 0-7.5 3.357-7.5 7.5s3.357 7.5 7.5 7.5h12.745c4.143 0 7.5-3.357 7.5-7.5s-3.357-7.5-7.5-7.5z"/><path d="m369.831 341.015h-68.644c-4.143 0-7.5 3.357-7.5 7.5s3.357 7.5 7.5 7.5h68.644c4.143 0 7.5-3.357 7.5-7.5s-3.357-7.5-7.5-7.5z"/><path d="m489.406 108.078c-28.263 0-448.568 0-466.812 0-12.458 0-22.594 10.136-22.594 22.594v32.813c0 4.142 3.357 7.5 7.5 7.5s7.5-3.358 7.5-7.5v-32.813c0-4.188 3.407-7.594 7.595-7.594h146.56l58.648 132.922-58.648 132.922h-146.56c-4.188 0-7.595-3.406-7.595-7.594v-187.856c0-4.142-3.357-7.5-7.5-7.5s-7.5 3.358-7.5 7.5v187.856c0 12.458 10.136 22.594 22.595 22.594h347.235c4.143 0 7.5-3.357 7.5-7.5s-3.357-7.5-7.5-7.5h-184.28l57.312-129.895c.852-1.929.852-4.126 0-6.055l-57.312-129.894h246.405l-10.75 35.419c-.853 2.809.013 5.857 2.213 7.801l8.978 7.926c1.427 1.259 3.197 1.877 4.961 1.877 2.076 0 4.143-.857 5.625-2.536 2.742-3.105 2.447-7.845-.658-10.586l-5.365-4.736 10.673-35.164h41.775c4.188 0 7.594 3.407 7.594 7.594v80.577l-32.181-28.41c-3.105-2.74-7.844-2.446-10.586.659s-2.447 7.845.658 10.586l42.108 37.174v150.068c0 4.188-3.406 7.595-7.594 7.595h-89.589c-4.143 0-7.5 3.357-7.5 7.5s3.357 7.5 7.5 7.5h89.589c12.458 0 22.594-10.136 22.594-22.595v-250.655c0-12.458-10.136-22.594-22.594-22.594z"/></g></g></svg>