<svg xmlns="http://www.w3.org/2000/svg" xmlns:xlink="http://www.w3.org/1999/xlink" version="1.1" x="0px" y="0px" viewBox="0 0 100 125" style="enable-background:new 0 0 100 100;" xml:space="preserve"><style type="text/css">
	.st0{fill-rule:evenodd;clip-rule:evenodd;}
</style><g><path d="M47.57,18.43L29.9,13.69c-0.32-0.09-0.65,0.05-0.82,0.33c-2.41,4.01-4.28,8.49-5.58,13.33   c-3.28,12.23-2.15,24.33,2.94,31.72l-8.39,31.41L8,87.79c-0.39-0.1-0.8,0.13-0.9,0.52c-0.11,0.39,0.13,0.8,0.52,0.9l10.73,2.87   c0.01,0,0.02,0,0.02,0.01c0.01,0,0.01,0,0.02,0.01l10.7,2.87c0.06,0.02,0.13,0.02,0.19,0.02c0.33,0,0.62-0.22,0.71-0.55   c0.11-0.39-0.13-0.8-0.52-0.9l-10.02-2.68l8.39-31.39C35.96,55.63,43,45.7,46.28,33.46c1.3-4.83,1.91-9.66,1.83-14.33   C48.11,18.8,47.89,18.51,47.57,18.43z M27.49,58.01c-2.72-4.08-4.18-9.82-4.32-16.19L44,35.93C40.62,46.18,34.37,54.6,27.49,58.01z    M44.86,33.08c-0.11,0.4-0.23,0.78-0.34,1.17l-21.36,6.04c0.05-4.05,0.62-8.32,1.76-12.56c1.21-4.51,2.94-8.71,5.14-12.48   l16.59,4.45C46.67,24.08,46.07,28.57,44.86,33.08z"/><path d="M92.9,88.32c-0.11-0.39-0.51-0.62-0.9-0.52l-10.04,2.69l-8.39-31.41c5.09-7.38,6.22-19.49,2.94-31.72   c-1.3-4.84-3.18-9.32-5.58-13.33c-0.17-0.28-0.51-0.42-0.82-0.33l-17.67,4.74c-0.32,0.09-0.54,0.37-0.55,0.7   c-0.08,4.67,0.54,9.5,1.83,14.33C57,45.71,64.04,55.63,72.15,59.48l8.39,31.39l-10.02,2.68c-0.39,0.11-0.63,0.51-0.52,0.9   c0.09,0.33,0.39,0.55,0.71,0.55c0.06,0,0.13-0.01,0.19-0.02l10.7-2.87c0.01,0,0.02,0,0.03-0.01c0.01,0,0.02,0,0.03-0.01l10.72-2.87   C92.77,89.11,93.01,88.71,92.9,88.32z M53.35,19.71l16.59-4.45c2.2,3.77,3.93,7.96,5.14,12.48c0.92,3.45,1.47,6.92,1.67,10.28   l-19.72,0.77c-0.73-1.84-1.37-3.75-1.9-5.71C53.93,28.57,53.33,24.07,53.35,19.71z M57.64,40.25l19.18-0.75   c0.21,7.29-1.26,13.94-4.31,18.52C66.62,55.1,61.2,48.5,57.64,40.25z"/><path d="M43.11,11.64c0.14,0.15,0.33,0.22,0.52,0.22c0.19,0,0.38-0.07,0.52-0.21c0.29-0.29,0.29-0.75,0-1.04l-5.34-5.38   c-0.29-0.29-0.75-0.29-1.04,0c-0.29,0.29-0.29,0.75,0,1.04L43.11,11.64z"/><path d="M50,5c-0.41,0-0.74,0.33-0.74,0.74v5.38c0,0.41,0.33,0.74,0.74,0.74c0.41,0,0.74-0.33,0.74-0.74V5.74   C50.74,5.33,50.41,5,50,5z"/><path d="M56.37,11.86c0.19,0,0.38-0.07,0.52-0.22l5.34-5.38c0.29-0.29,0.28-0.76,0-1.04c-0.29-0.29-0.76-0.28-1.04,0l-5.34,5.38   c-0.29,0.29-0.28,0.76,0,1.04C55.99,11.78,56.18,11.86,56.37,11.86z"/><path d="M65.85,42.74c-0.68,0-1.23,0.55-1.23,1.23c0,0.68,0.55,1.23,1.23,1.23c0.68,0,1.23-0.55,1.23-1.23   C67.08,43.29,66.53,42.74,65.85,42.74z"/><path d="M29.45,50.52c-0.68,0-1.23,0.55-1.23,1.23c0,0.68,0.55,1.23,1.23,1.23c0.68,0,1.23-0.55,1.23-1.23   C30.68,51.08,30.13,50.52,29.45,50.52z"/><path d="M34.92,41.34c-0.68,0-1.23,0.55-1.23,1.23c0,0.68,0.55,1.23,1.23,1.23c0.68,0,1.23-0.55,1.23-1.23   C36.15,41.89,35.6,41.34,34.92,41.34z"/><path d="M29.57,45.3c0-0.68-0.55-1.23-1.23-1.23c-0.68,0-1.23,0.55-1.23,1.23c0,0.68,0.55,1.23,1.23,1.23   C29.02,46.53,29.57,45.98,29.57,45.3z"/><path d="M71.36,46.15c-0.68,0-1.23,0.55-1.23,1.23c0,0.68,0.55,1.23,1.23,1.23c0.68,0,1.23-0.55,1.23-1.23   C72.59,46.7,72.04,46.15,71.36,46.15z"/><path d="M70.62,51.7c-0.68,0-1.23,0.55-1.23,1.23c0,0.68,0.55,1.23,1.23,1.23c0.68,0,1.23-0.55,1.23-1.23   C71.85,52.25,71.3,51.7,70.62,51.7z"/></g><text x="0" y="115" fill="#000000" font-size="5px" font-weight="bold" font-family="'Helvetica Neue', Helvetica, Arial-Unicode, Arial, Sans-serif">Created by Philine Klingel</text><text x="0" y="120" fill="#000000" font-size="5px" font-weight="bold" font-family="'Helvetica Neue', Helvetica, Arial-Unicode, Arial, Sans-serif">from the Noun Project</text></svg>